<?xml version="1.0" encoding="UTF-8"?>
<svg id="LOGOS" xmlns="http://www.w3.org/2000/svg" viewBox="0 0 1000 150.77">
  <defs>
    <style>
      .cls-1 {
        fill: #fdf6e3;
      }
    </style>
  </defs>
  <g>
    <path class="cls-1" d="M353.65,31.74l-.72-1.23h-15l-.72,1.23-42.52,72.88-2.18,3.74h16.44l.71-1.3,8.4-15.41h54.74l8.4,15.41.71,1.3h16.43l-2.18-3.74-42.51-72.88ZM365.43,79.1h-40.01l20.01-35.01,20.01,35.01Z"/>
    <polygon class="cls-1" points="271.78 30.51 269.3 30.51 269.3 33 269.3 62.39 207.46 62.39 207.46 33 207.46 30.51 204.98 30.51 195.87 30.51 193.38 30.51 193.38 33 193.38 105.88 193.38 108.36 195.87 108.36 204.98 108.36 207.46 108.36 207.46 105.88 207.46 74.96 269.3 74.96 269.3 105.88 269.3 108.36 271.78 108.36 280.89 108.36 283.38 108.36 283.38 105.88 283.38 33 283.38 30.51 280.89 30.51 271.78 30.51"/>
    <path class="cls-1" d="M468.29,42.26h.02c3.15.24,5.37.88,6.85,1.75h.01c1.33.78,2.38,2.08,3.06,4.17h0c.7,2.17,1.11,5.43,1.11,9.92v2.49h14.09v-2.49c0-5.96-.63-10.94-1.99-14.82h0c-1.38-3.97-3.68-7.11-6.93-9.26h0s0,0,0,0c0,0-.01-.01-.02-.02h0c-3.13-2.1-7.12-3.4-11.83-4.03h0s-.01,0-.02,0c0,0,0,0,0,0h0c-4.61-.65-10.22-.97-16.8-.97h-19.12c-5.76,0-10.74.27-14.92.83h0s0,0-.01,0c0,0,0,0,0,0h0c-4.25.53-7.93,1.58-10.96,3.22h-.01c-3.08,1.69-5.51,4.14-7.28,7.28-1.75,3.1-2.91,7-3.57,11.59h0c-.65,4.52-.97,10.06-.97,16.58v1.9c0,7.9.51,14.43,1.57,19.53v.02c1.11,5.17,3.08,9.39,6.07,12.42h0c3.02,3.03,7.09,4.98,12.01,6h0s0,0,0,0c0,0,0,0,0,0h0c4.82,1.03,10.86,1.52,18.06,1.52h19.12c6.58,0,12.18-.29,16.78-.87h0c4.72-.6,8.72-1.83,11.85-3.84h0c3.27-2.11,5.58-5.21,6.98-9.14,1.37-3.85,1.99-8.82,1.99-14.78v-2.49h-14.09v2.49c0,4.45-.41,7.69-1.11,9.86-.66,2.01-1.7,3.23-3.01,3.95h-.02c-1.48.84-3.72,1.44-6.88,1.64-3.28.22-7.44.33-12.51.33h-19.12c-4.47,0-8.19-.16-11.18-.46-2.89-.3-5.08-.92-6.67-1.76-1.43-.78-2.57-1.95-3.4-3.64-.84-1.77-1.49-4.29-1.85-7.67-.37-3.42-.55-7.79-.55-13.12v-1.9c0-5.52.19-10.01.55-13.5.36-3.45,1.01-5.98,1.85-7.7.82-1.64,1.93-2.74,3.33-3.42h.02c1.58-.8,3.78-1.37,6.68-1.6h.01s.01,0,.01,0c3-.28,6.73-.42,11.21-.42h19.12c5.05,0,9.2.14,12.46.42"/>
    <path class="cls-1" d="M891.88,51.9c-.66-4.59-1.82-8.48-3.57-11.59-1.77-3.14-4.22-5.59-7.33-7.27h0s0,0,0,0c0,0,0,0,0,0h0c-3-1.64-6.67-2.69-10.92-3.22h0s0,0,0,0c0,0,0,0,0,0h0c-4.19-.55-9.17-.83-14.92-.83h-19.12c-5.76,0-10.74.27-14.92.83h0s0,0,0,0c0,0,0,0-.01,0h0c-4.25.53-7.93,1.58-10.96,3.22h0c-3.08,1.69-5.52,4.14-7.28,7.28-1.75,3.1-2.91,7-3.57,11.59h0c-.66,4.52-.98,10.06-.98,16.58v1.9c0,7.9.51,14.43,1.57,19.53v.02c1.11,5.17,3.08,9.39,6.07,12.42h.01c3.02,3.03,7.09,4.98,12.01,6h0s0,0,0,0c0,0,0,0,0,0h0c4.82,1.03,10.85,1.52,18.06,1.52h19.12c7.2,0,13.24-.49,18.06-1.52h0s0,0,0,0c0,0,0,0,0,0h0c4.92-1.02,8.97-2.97,11.96-5.99h0s0,0,0,0c0,0,0,0,.01-.01h0c3.03-3.04,5-7.26,6.07-12.43h0s0,0,0,0c0,0,0,0,0,0h0c1.09-5.11,1.62-11.64,1.62-19.53v-1.9c0-6.52-.32-12.06-.97-16.58h0ZM878.77,70.39c0,5.33-.19,9.69-.55,13.12-.36,3.39-1.03,5.9-1.89,7.66h0s0,.03,0,.03c-.8,1.67-1.92,2.84-3.38,3.62h-.02c-1.55.84-3.71,1.47-6.61,1.76-2.99.3-6.71.46-11.18.46h-19.12c-4.47,0-8.19-.16-11.18-.46-2.89-.3-5.08-.92-6.67-1.76-1.43-.78-2.57-1.95-3.4-3.64-.84-1.77-1.49-4.29-1.85-7.67-.37-3.42-.55-7.79-.55-13.12v-1.9c0-5.52.19-10.01.56-13.5.36-3.45,1.01-5.98,1.84-7.7.82-1.64,1.93-2.74,3.33-3.42h.02c1.59-.8,3.78-1.37,6.68-1.6h.01s.01,0,.01,0c3-.28,6.73-.42,11.21-.42h19.12c4.48,0,8.21.14,11.21.42h.01s.01,0,.01,0c2.91.24,5.08.8,6.62,1.59h.02s.02.02.02.02c1.42.69,2.52,1.78,3.31,3.4h0s0,.03,0,.03c.86,1.72,1.52,4.23,1.89,7.69.37,3.49.55,7.98.55,13.5v1.9Z"/>
    <path class="cls-1" d="M782.18,35.17c-2.7-1.86-6.43-3.03-10.97-3.69h0c-4.5-.66-10.36-.98-17.54-.98h-51.26v77.86h14.09v-29.47h41.31c.18,0,.34-.01.51-.01l14.8,28.15.7,1.33h14.73l-1.91-3.64-14.26-27.15c3.62-.75,6.65-1.84,8.96-3.35h0s.02-.01.02-.01c2.99-1.99,5.08-4.65,6.16-7.94h0c1.02-3.07,1.5-6.61,1.5-10.59v-1.9c0-4.25-.41-7.91-1.29-10.9-.95-3.22-2.8-5.82-5.53-7.7ZM774.91,55.68c0,2.55-.2,4.5-.55,5.91-.25,1.03-.8,1.79-1.74,2.37h0s-.01.01-.01.01c-.98.62-2.83,1.21-5.84,1.58-2.96.33-7.11.51-12.47.51h-37.8v-22.69h35.43c5.63,0,10.09.13,13.38.37h.02c3.28.22,5.45.71,6.72,1.33,1.12.54,1.78,1.31,2.13,2.38.45,1.38.73,3.46.73,6.34v1.9Z"/>
    <polygon class="cls-1" points="542.17 68.69 590.85 35.04 597.41 30.51 589.44 30.51 575.77 30.51 575.01 30.51 574.38 30.94 527.89 62.39 519.04 62.39 519.04 33 519.04 30.51 516.56 30.51 507.44 30.51 504.96 30.51 504.96 33 504.96 105.88 504.96 108.36 507.44 108.36 516.56 108.36 519.04 108.36 519.04 105.88 519.04 74.96 527.93 74.96 575.88 107.93 576.52 108.36 577.29 108.36 590.95 108.36 598.85 108.36 592.38 103.84 542.17 68.69"/>
    <polygon class="cls-1" points="997.51 30.51 988.4 30.51 985.91 30.51 985.91 33 985.91 89.37 916.69 31.09 916 30.51 915.09 30.51 905.6 30.51 903.12 30.51 903.12 33 903.12 105.88 903.12 108.36 905.6 108.36 914.71 108.36 917.2 108.36 917.2 105.88 917.2 49.01 986.41 107.77 987.11 108.36 988.02 108.36 997.51 108.36 1000 108.36 1000 105.88 1000 33 1000 30.51 997.51 30.51"/>
    <polygon class="cls-1" points="608.17 30.51 605.68 30.51 605.68 33 605.68 40.59 605.68 43.08 608.17 43.08 642.12 43.08 642.12 105.88 642.12 108.36 644.61 108.36 653.72 108.36 656.21 108.36 656.21 105.88 656.21 43.08 690.16 43.08 692.65 43.08 692.65 40.59 692.65 33 692.65 30.51 690.16 30.51 608.17 30.51"/>
  </g>
  <g>
    <path class="cls-1" d="M51.63,18.53V0H0v51.69h34.66c6.74,0,10.89-.97,14.81-2.8,3.45-1.61,6.5-3.83,9.06-6.59,1.93-2.08,3.38-4.25,4.49-6.36,2.18-4.19,3.27-8.86,3.28-13.58l.02-3.83h-14.69Z"/>
    <path class="cls-1" d="M74.91,18.53l.02,3.83c.02,4.72,1.1,9.39,3.28,13.58,1.1,2.11,2.56,4.29,4.49,6.36,2.56,2.76,5.61,4.98,9.06,6.59,3.93,1.83,8.07,2.8,14.81,2.8h34.66s0-51.69,0-51.69h-51.63s0,18.53,0,18.53h-14.69Z"/>
    <path class="cls-1" d="M106.57,60.2c-6.74,0-10.89.97-14.81,2.8-3.45,1.61-6.5,3.83-9.06,6.59-1.93,2.08-3.38,4.25-4.49,6.36-2.18,4.19-3.27,8.86-3.28,13.58l-.02,3.83h14.69v57.4h9.27l42.36-42.38v-48.18h-34.66Z"/>
    <path class="cls-1" d="M0,60.2v48.18s42.36,42.38,42.36,42.38h9.27s0-57.4,0-57.4h14.69s-.02-3.83-.02-3.83c-.02-4.72-1.1-9.39-3.28-13.58-1.1-2.11-2.56-4.29-4.49-6.36-2.56-2.76-5.61-4.98-9.06-6.59-3.93-1.83-8.07-2.8-14.81-2.8H0Z"/>
  </g>
</svg>